<svg width="17" height="20" viewBox="0 0 17 20" fill="none" xmlns="http://www.w3.org/2000/svg">
<path d="M3 3H5.5C5.5 2.20435 5.81607 1.44129 6.37868 0.87868C6.94129 0.316071 7.70435 0 8.5 0C9.29565 0 10.0587 0.316071 10.6213 0.87868C11.1839 1.44129 11.5 2.20435 11.5 3H14C14.7956 3 15.5587 3.31607 16.1213 3.87868C16.6839 4.44129 17 5.20435 17 6V17C17 17.7956 16.6839 18.5587 16.1213 19.1213C15.5587 19.6839 14.7956 20 14 20H3C2.20435 20 1.44129 19.6839 0.87868 19.1213C0.316071 18.5587 0 17.7956 0 17V6C0 5.20435 0.316071 4.44129 0.87868 3.87868C1.44129 3.31607 2.20435 3 3 3ZM3 4C2.46957 4 1.96086 4.21071 1.58579 4.58579C1.21071 4.96086 1 5.46957 1 6V17C1 17.5304 1.21071 18.0391 1.58579 18.4142C1.96086 18.7893 2.46957 19 3 19H14C14.5304 19 15.0391 18.7893 15.4142 18.4142C15.7893 18.0391 16 17.5304 16 17V6C16 5.46957 15.7893 4.96086 15.4142 4.58579C15.0391 4.21071 14.5304 4 14 4H13V7H4V4H3ZM5 6H12V4H5V6ZM8.5 1C7.96957 1 7.46086 1.21071 7.08579 1.58579C6.71071 1.96086 6.5 2.46957 6.5 3H10.5C10.5 2.46957 10.2893 1.96086 9.91421 1.58579C9.53914 1.21071 9.03043 1 8.5 1Z" fill="black"/>
</svg>
